<svg width="238" height="144" viewBox="0 0 238 144" fill="none" xmlns="http://www.w3.org/2000/svg">
<circle cx="66.5" cy="57.5" r="14.5" fill="black"/>
<rect x="105" y="44" width="27" height="27" fill="black"/>
<path d="M156 45L182 71" stroke="black" stroke-width="4"/>
<path d="M182 45L156 71" stroke="black" stroke-width="4"/>
<path d="M149.191 87.2598C149.191 87.1621 149.168 87.0762 149.121 87.002C149.078 86.9277 148.998 86.8594 148.881 86.7969C148.768 86.7305 148.615 86.6699 148.424 86.6152C148.232 86.5605 147.99 86.5059 147.697 86.4512C147.326 86.377 146.986 86.2852 146.678 86.1758C146.373 86.0625 146.111 85.9277 145.893 85.7715C145.674 85.6113 145.502 85.4277 145.377 85.2207C145.256 85.0137 145.195 84.7754 145.195 84.5059C145.195 84.2441 145.258 83.9941 145.383 83.7559C145.508 83.5176 145.688 83.3086 145.922 83.1289C146.156 82.9492 146.441 82.8066 146.777 82.7012C147.113 82.5957 147.492 82.543 147.914 82.543C148.355 82.543 148.752 82.5957 149.104 82.7012C149.455 82.8027 149.752 82.9453 149.994 83.1289C150.24 83.3086 150.428 83.5234 150.557 83.7734C150.686 84.0234 150.75 84.2949 150.75 84.5879H149.121C149.121 84.3418 149.021 84.1367 148.822 83.9727C148.623 83.8047 148.32 83.7207 147.914 83.7207C147.535 83.7207 147.248 83.7891 147.053 83.9258C146.861 84.0625 146.766 84.2305 146.766 84.4297C146.766 84.5234 146.785 84.6113 146.824 84.6934C146.863 84.7715 146.932 84.8438 147.029 84.9102C147.131 84.9727 147.268 85.0312 147.439 85.0859C147.611 85.1367 147.83 85.1816 148.096 85.2207C148.479 85.2832 148.834 85.3633 149.162 85.4609C149.49 85.5586 149.773 85.6855 150.012 85.8418C150.25 85.9941 150.436 86.1816 150.568 86.4043C150.705 86.623 150.773 86.8848 150.773 87.1895C150.773 87.4707 150.705 87.7305 150.568 87.9688C150.436 88.2031 150.244 88.4062 149.994 88.5781C149.748 88.75 149.449 88.8848 149.098 88.9824C148.746 89.0762 148.354 89.123 147.92 89.123C147.443 89.123 147.021 89.0605 146.654 88.9355C146.291 88.8105 145.986 88.6484 145.74 88.4492C145.494 88.2461 145.307 88.0176 145.178 87.7637C145.053 87.5059 144.99 87.248 144.99 86.9902H146.543C146.555 87.1621 146.602 87.3105 146.684 87.4355C146.766 87.5566 146.871 87.6562 147 87.7344C147.129 87.8086 147.275 87.8633 147.439 87.8984C147.607 87.9336 147.779 87.9512 147.955 87.9512C148.357 87.9512 148.664 87.8867 148.875 87.7578C149.086 87.6289 149.191 87.4629 149.191 87.2598ZM155.115 87.8164C155.275 87.8164 155.428 87.793 155.572 87.7461C155.717 87.6992 155.844 87.6328 155.953 87.5469C156.062 87.4609 156.146 87.3574 156.205 87.2363C156.268 87.1152 156.295 86.9805 156.287 86.832H157.822C157.83 87.1602 157.762 87.4648 157.617 87.7461C157.477 88.0273 157.283 88.2695 157.037 88.4727C156.791 88.6758 156.504 88.8359 156.176 88.9531C155.852 89.0664 155.508 89.123 155.145 89.123C154.652 89.123 154.221 89.041 153.85 88.877C153.479 88.709 153.168 88.4805 152.918 88.1914C152.672 87.9023 152.484 87.5645 152.355 87.1777C152.23 86.7871 152.168 86.3691 152.168 85.9238V85.748C152.168 85.3027 152.23 84.8867 152.355 84.5C152.48 84.1094 152.668 83.7695 152.918 83.4805C153.168 83.1914 153.477 82.9629 153.844 82.7949C154.215 82.627 154.645 82.543 155.133 82.543C155.523 82.543 155.885 82.6016 156.217 82.7188C156.549 82.8359 156.834 83.002 157.072 83.2168C157.314 83.4277 157.502 83.6855 157.635 83.9902C157.768 84.291 157.83 84.6289 157.822 85.0039H156.287C156.295 84.8477 156.271 84.6992 156.217 84.5586C156.162 84.418 156.082 84.2969 155.977 84.1953C155.871 84.0938 155.744 84.0137 155.596 83.9551C155.447 83.8926 155.285 83.8613 155.109 83.8613C154.852 83.8613 154.639 83.9141 154.471 84.0195C154.303 84.125 154.168 84.2656 154.066 84.4414C153.969 84.6172 153.898 84.8184 153.855 85.0449C153.816 85.2715 153.797 85.5059 153.797 85.748V85.9238C153.797 86.1699 153.816 86.4082 153.855 86.6387C153.895 86.8652 153.963 87.0664 154.061 87.2422C154.162 87.4141 154.297 87.5527 154.465 87.6582C154.637 87.7637 154.854 87.8164 155.115 87.8164ZM159.949 82.6602H163.4V87.6758H165.117V89H159.949V87.6758H161.754V83.9902H159.949V82.6602ZM161.637 81.0371C161.637 80.9121 161.658 80.7969 161.701 80.6914C161.748 80.582 161.812 80.4902 161.895 80.416C161.977 80.3379 162.074 80.2773 162.188 80.2344C162.305 80.1914 162.434 80.1699 162.574 80.1699C162.863 80.1699 163.092 80.252 163.26 80.416C163.432 80.5762 163.518 80.7832 163.518 81.0371C163.518 81.291 163.432 81.5 163.26 81.6641C163.092 81.8242 162.863 81.9043 162.574 81.9043C162.434 81.9043 162.305 81.8828 162.188 81.8398C162.074 81.7969 161.977 81.7383 161.895 81.6641C161.812 81.5859 161.748 81.4941 161.701 81.3887C161.658 81.2793 161.637 81.1621 161.637 81.0371ZM170.812 87.2598C170.812 87.1621 170.789 87.0762 170.742 87.002C170.699 86.9277 170.619 86.8594 170.502 86.7969C170.389 86.7305 170.236 86.6699 170.045 86.6152C169.854 86.5605 169.611 86.5059 169.318 86.4512C168.947 86.377 168.607 86.2852 168.299 86.1758C167.994 86.0625 167.732 85.9277 167.514 85.7715C167.295 85.6113 167.123 85.4277 166.998 85.2207C166.877 85.0137 166.816 84.7754 166.816 84.5059C166.816 84.2441 166.879 83.9941 167.004 83.7559C167.129 83.5176 167.309 83.3086 167.543 83.1289C167.777 82.9492 168.062 82.8066 168.398 82.7012C168.734 82.5957 169.113 82.543 169.535 82.543C169.977 82.543 170.373 82.5957 170.725 82.7012C171.076 82.8027 171.373 82.9453 171.615 83.1289C171.861 83.3086 172.049 83.5234 172.178 83.7734C172.307 84.0234 172.371 84.2949 172.371 84.5879H170.742C170.742 84.3418 170.643 84.1367 170.443 83.9727C170.244 83.8047 169.941 83.7207 169.535 83.7207C169.156 83.7207 168.869 83.7891 168.674 83.9258C168.482 84.0625 168.387 84.2305 168.387 84.4297C168.387 84.5234 168.406 84.6113 168.445 84.6934C168.484 84.7715 168.553 84.8438 168.65 84.9102C168.752 84.9727 168.889 85.0312 169.061 85.0859C169.232 85.1367 169.451 85.1816 169.717 85.2207C170.1 85.2832 170.455 85.3633 170.783 85.4609C171.111 85.5586 171.395 85.6855 171.633 85.8418C171.871 85.9941 172.057 86.1816 172.189 86.4043C172.326 86.623 172.395 86.8848 172.395 87.1895C172.395 87.4707 172.326 87.7305 172.189 87.9688C172.057 88.2031 171.865 88.4062 171.615 88.5781C171.369 88.75 171.07 88.8848 170.719 88.9824C170.367 89.0762 169.975 89.123 169.541 89.123C169.064 89.123 168.643 89.0605 168.275 88.9355C167.912 88.8105 167.607 88.6484 167.361 88.4492C167.115 88.2461 166.928 88.0176 166.799 87.7637C166.674 87.5059 166.611 87.248 166.611 86.9902H168.164C168.176 87.1621 168.223 87.3105 168.305 87.4355C168.387 87.5566 168.492 87.6562 168.621 87.7344C168.75 87.8086 168.896 87.8633 169.061 87.8984C169.229 87.9336 169.4 87.9512 169.576 87.9512C169.979 87.9512 170.285 87.8867 170.496 87.7578C170.707 87.6289 170.812 87.4629 170.812 87.2598ZM178.02 87.2598C178.02 87.1621 177.996 87.0762 177.949 87.002C177.906 86.9277 177.826 86.8594 177.709 86.7969C177.596 86.7305 177.443 86.6699 177.252 86.6152C177.061 86.5605 176.818 86.5059 176.525 86.4512C176.154 86.377 175.814 86.2852 175.506 86.1758C175.201 86.0625 174.939 85.9277 174.721 85.7715C174.502 85.6113 174.33 85.4277 174.205 85.2207C174.084 85.0137 174.023 84.7754 174.023 84.5059C174.023 84.2441 174.086 83.9941 174.211 83.7559C174.336 83.5176 174.516 83.3086 174.75 83.1289C174.984 82.9492 175.27 82.8066 175.605 82.7012C175.941 82.5957 176.32 82.543 176.742 82.543C177.184 82.543 177.58 82.5957 177.932 82.7012C178.283 82.8027 178.58 82.9453 178.822 83.1289C179.068 83.3086 179.256 83.5234 179.385 83.7734C179.514 84.0234 179.578 84.2949 179.578 84.5879H177.949C177.949 84.3418 177.85 84.1367 177.65 83.9727C177.451 83.8047 177.148 83.7207 176.742 83.7207C176.363 83.7207 176.076 83.7891 175.881 83.9258C175.689 84.0625 175.594 84.2305 175.594 84.4297C175.594 84.5234 175.613 84.6113 175.652 84.6934C175.691 84.7715 175.76 84.8438 175.857 84.9102C175.959 84.9727 176.096 85.0312 176.268 85.0859C176.439 85.1367 176.658 85.1816 176.924 85.2207C177.307 85.2832 177.662 85.3633 177.99 85.4609C178.318 85.5586 178.602 85.6855 178.84 85.8418C179.078 85.9941 179.264 86.1816 179.396 86.4043C179.533 86.623 179.602 86.8848 179.602 87.1895C179.602 87.4707 179.533 87.7305 179.396 87.9688C179.264 88.2031 179.072 88.4062 178.822 88.5781C178.576 88.75 178.277 88.8848 177.926 88.9824C177.574 89.0762 177.182 89.123 176.748 89.123C176.271 89.123 175.85 89.0605 175.482 88.9355C175.119 88.8105 174.814 88.6484 174.568 88.4492C174.322 88.2461 174.135 88.0176 174.006 87.7637C173.881 87.5059 173.818 87.248 173.818 86.9902H175.371C175.383 87.1621 175.43 87.3105 175.512 87.4355C175.594 87.5566 175.699 87.6562 175.828 87.7344C175.957 87.8086 176.104 87.8633 176.268 87.8984C176.436 87.9336 176.607 87.9512 176.783 87.9512C177.186 87.9512 177.492 87.8867 177.703 87.7578C177.914 87.6289 178.02 87.4629 178.02 87.2598ZM180.914 85.7715C180.914 85.3105 180.98 84.8848 181.113 84.4941C181.246 84.0996 181.439 83.7578 181.693 83.4688C181.951 83.1797 182.264 82.9531 182.631 82.7891C183.002 82.625 183.426 82.543 183.902 82.543C184.379 82.543 184.803 82.625 185.174 82.7891C185.545 82.9531 185.857 83.1797 186.111 83.4688C186.369 83.7578 186.564 84.0996 186.697 84.4941C186.83 84.8848 186.896 85.3105 186.896 85.7715V85.8945C186.896 86.3594 186.83 86.7891 186.697 87.1836C186.564 87.5742 186.371 87.9141 186.117 88.2031C185.863 88.4922 185.551 88.7188 185.18 88.8828C184.809 89.043 184.387 89.123 183.914 89.123C183.438 89.123 183.012 89.043 182.637 88.8828C182.266 88.7188 181.951 88.4922 181.693 88.2031C181.439 87.9141 181.246 87.5742 181.113 87.1836C180.98 86.7891 180.914 86.3594 180.914 85.8945V85.7715ZM182.543 85.8945C182.543 86.1602 182.568 86.4102 182.619 86.6445C182.67 86.875 182.75 87.0781 182.859 87.2539C182.969 87.4258 183.109 87.5625 183.281 87.6641C183.457 87.7656 183.668 87.8164 183.914 87.8164C184.152 87.8164 184.357 87.7656 184.529 87.6641C184.701 87.5625 184.84 87.4258 184.945 87.2539C185.055 87.0781 185.135 86.875 185.186 86.6445C185.236 86.4102 185.262 86.1602 185.262 85.8945V85.7715C185.262 85.5137 185.236 85.2695 185.186 85.0391C185.135 84.8086 185.055 84.6055 184.945 84.4297C184.84 84.2539 184.701 84.1152 184.529 84.0137C184.357 83.9121 184.148 83.8613 183.902 83.8613C183.66 83.8613 183.453 83.9121 183.281 84.0137C183.109 84.1152 182.969 84.2539 182.859 84.4297C182.75 84.6055 182.67 84.8086 182.619 85.0391C182.568 85.2695 182.543 85.5137 182.543 85.7715V85.8945ZM192.896 82.543C193.143 82.543 193.369 82.5605 193.576 82.5957C193.787 82.627 193.957 82.6621 194.086 82.7012L193.846 84.3242C193.631 84.2734 193.41 84.2363 193.184 84.2129C192.961 84.1855 192.748 84.1719 192.545 84.1719C192.088 84.1719 191.721 84.2598 191.443 84.4355C191.17 84.6113 190.965 84.8633 190.828 85.1914V89H189.199V82.6602H190.717L190.793 83.6973C191.051 83.3379 191.359 83.0566 191.719 82.8535C192.078 82.6465 192.471 82.543 192.896 82.543Z" fill="black"/>
<path d="M106.504 85.8887C106.504 86.3496 106.449 86.7773 106.34 87.1719C106.234 87.5664 106.076 87.9082 105.865 88.1973C105.658 88.4824 105.4 88.707 105.092 88.8711C104.783 89.0352 104.43 89.1172 104.031 89.1172C103.691 89.1172 103.393 89.0586 103.135 88.9414C102.877 88.8242 102.652 88.6602 102.461 88.4492V91.4375H100.832V82.6602H102.338L102.396 83.2812C102.592 83.0469 102.822 82.8652 103.088 82.7363C103.354 82.6074 103.664 82.543 104.02 82.543C104.422 82.543 104.777 82.6211 105.086 82.7773C105.395 82.9297 105.654 83.1484 105.865 83.4336C106.076 83.7148 106.234 84.0547 106.34 84.4531C106.449 84.8477 106.504 85.2852 106.504 85.7656V85.8887ZM104.875 85.7656C104.875 85.5 104.85 85.252 104.799 85.0215C104.752 84.7871 104.676 84.5859 104.57 84.418C104.469 84.2461 104.336 84.1113 104.172 84.0137C104.012 83.916 103.816 83.8672 103.586 83.8672C103.301 83.8672 103.066 83.9238 102.883 84.0371C102.703 84.1465 102.562 84.3027 102.461 84.5059V87.1543C102.562 87.3535 102.703 87.5137 102.883 87.6348C103.066 87.752 103.305 87.8105 103.598 87.8105C103.828 87.8105 104.023 87.7598 104.184 87.6582C104.348 87.5566 104.48 87.418 104.582 87.2422C104.684 87.0664 104.758 86.8633 104.805 86.6328C104.852 86.3984 104.875 86.1504 104.875 85.8887V85.7656ZM111.977 89C111.938 88.9219 111.904 88.832 111.877 88.7305C111.85 88.6289 111.826 88.5215 111.807 88.4082C111.717 88.5059 111.613 88.5977 111.496 88.6836C111.379 88.7695 111.248 88.8457 111.104 88.9121C110.963 88.9746 110.807 89.0234 110.635 89.0586C110.463 89.0977 110.277 89.1172 110.078 89.1172C109.754 89.1172 109.455 89.0703 109.182 88.9766C108.912 88.8828 108.68 88.752 108.484 88.584C108.289 88.416 108.137 88.2168 108.027 87.9863C107.918 87.752 107.863 87.498 107.863 87.2246C107.863 86.5566 108.111 86.041 108.607 85.6777C109.107 85.3105 109.852 85.127 110.84 85.127H111.748V84.752C111.748 84.4473 111.648 84.207 111.449 84.0312C111.25 83.8516 110.963 83.7617 110.588 83.7617C110.256 83.7617 110.014 83.834 109.861 83.9785C109.709 84.1191 109.633 84.3086 109.633 84.5469H108.004C108.004 84.2773 108.062 84.0215 108.18 83.7793C108.301 83.5371 108.475 83.3242 108.701 83.1406C108.932 82.957 109.211 82.8125 109.539 82.707C109.871 82.5977 110.25 82.543 110.676 82.543C111.059 82.543 111.414 82.5898 111.742 82.6836C112.074 82.7773 112.361 82.916 112.604 83.0996C112.846 83.2832 113.035 83.5156 113.172 83.7969C113.309 84.0742 113.377 84.3965 113.377 84.7637V87.4824C113.377 87.8223 113.398 88.1035 113.441 88.3262C113.484 88.5488 113.547 88.7402 113.629 88.9004V89H111.977ZM110.424 87.8574C110.588 87.8574 110.74 87.8379 110.881 87.7988C111.021 87.7598 111.148 87.709 111.262 87.6465C111.375 87.584 111.473 87.5137 111.555 87.4355C111.637 87.3535 111.701 87.2715 111.748 87.1895V86.0996H110.916C110.662 86.0996 110.445 86.125 110.266 86.1758C110.086 86.2227 109.939 86.291 109.826 86.3809C109.713 86.4668 109.629 86.5723 109.574 86.6973C109.52 86.8184 109.492 86.9512 109.492 87.0957C109.492 87.3145 109.568 87.4961 109.721 87.6406C109.877 87.7852 110.111 87.8574 110.424 87.8574ZM120.918 85.8887C120.918 86.3496 120.863 86.7773 120.754 87.1719C120.648 87.5664 120.49 87.9082 120.279 88.1973C120.072 88.4824 119.814 88.707 119.506 88.8711C119.197 89.0352 118.844 89.1172 118.445 89.1172C118.105 89.1172 117.807 89.0586 117.549 88.9414C117.291 88.8242 117.066 88.6602 116.875 88.4492V91.4375H115.246V82.6602H116.752L116.811 83.2812C117.006 83.0469 117.236 82.8652 117.502 82.7363C117.768 82.6074 118.078 82.543 118.434 82.543C118.836 82.543 119.191 82.6211 119.5 82.7773C119.809 82.9297 120.068 83.1484 120.279 83.4336C120.49 83.7148 120.648 84.0547 120.754 84.4531C120.863 84.8477 120.918 85.2852 120.918 85.7656V85.8887ZM119.289 85.7656C119.289 85.5 119.264 85.252 119.213 85.0215C119.166 84.7871 119.09 84.5859 118.984 84.418C118.883 84.2461 118.75 84.1113 118.586 84.0137C118.426 83.916 118.23 83.8672 118 83.8672C117.715 83.8672 117.48 83.9238 117.297 84.0371C117.117 84.1465 116.977 84.3027 116.875 84.5059V87.1543C116.977 87.3535 117.117 87.5137 117.297 87.6348C117.48 87.752 117.719 87.8105 118.012 87.8105C118.242 87.8105 118.438 87.7598 118.598 87.6582C118.762 87.5566 118.895 87.418 118.996 87.2422C119.098 87.0664 119.172 86.8633 119.219 86.6328C119.266 86.3984 119.289 86.1504 119.289 85.8887V85.7656ZM125.506 89.1172C125.018 89.1172 124.574 89.0371 124.176 88.877C123.777 88.7168 123.436 88.5 123.15 88.2266C122.865 87.9492 122.645 87.625 122.488 87.2539C122.336 86.8789 122.26 86.4785 122.26 86.0527V85.8184C122.26 85.334 122.336 84.8926 122.488 84.4941C122.641 84.0918 122.854 83.7461 123.127 83.457C123.4 83.168 123.725 82.9434 124.1 82.7832C124.475 82.623 124.883 82.543 125.324 82.543C125.781 82.543 126.188 82.6191 126.543 82.7715C126.902 82.9199 127.205 83.1309 127.451 83.4043C127.701 83.6777 127.891 84.0078 128.02 84.3945C128.148 84.7773 128.213 85.2012 128.213 85.666V86.3574H123.912C123.943 86.5723 124.006 86.7695 124.1 86.9492C124.197 87.125 124.32 87.2773 124.469 87.4062C124.617 87.5352 124.787 87.6348 124.979 87.7051C125.17 87.7754 125.379 87.8105 125.605 87.8105C125.766 87.8105 125.924 87.7949 126.08 87.7637C126.24 87.7324 126.393 87.6875 126.537 87.6289C126.682 87.5664 126.816 87.4902 126.941 87.4004C127.066 87.3105 127.176 87.2051 127.27 87.084L128.084 87.9629C127.982 88.1074 127.85 88.25 127.686 88.3906C127.525 88.5273 127.334 88.6504 127.111 88.7598C126.893 88.8652 126.648 88.9512 126.379 89.0176C126.109 89.084 125.818 89.1172 125.506 89.1172ZM125.312 83.8613C125.129 83.8613 124.961 83.8945 124.809 83.9609C124.656 84.0234 124.521 84.1152 124.404 84.2363C124.291 84.3574 124.195 84.502 124.117 84.6699C124.039 84.8379 123.98 85.0254 123.941 85.2324H126.613V85.1035C126.605 84.9316 126.572 84.7695 126.514 84.6172C126.455 84.4648 126.371 84.334 126.262 84.2246C126.152 84.1113 126.018 84.0234 125.857 83.9609C125.701 83.8945 125.52 83.8613 125.312 83.8613ZM134.189 82.543C134.436 82.543 134.662 82.5605 134.869 82.5957C135.08 82.627 135.25 82.6621 135.379 82.7012L135.139 84.3242C134.924 84.2734 134.703 84.2363 134.477 84.2129C134.254 84.1855 134.041 84.1719 133.838 84.1719C133.381 84.1719 133.014 84.2598 132.736 84.4355C132.463 84.6113 132.258 84.8633 132.121 85.1914V89H130.492V82.6602H132.01L132.086 83.6973C132.344 83.3379 132.652 83.0566 133.012 82.8535C133.371 82.6465 133.764 82.543 134.189 82.543Z" fill="black"/>
<path d="M56.4648 82.543C56.7109 82.543 56.9375 82.5605 57.1445 82.5957C57.3555 82.627 57.5254 82.6621 57.6543 82.7012L57.4141 84.3242C57.1992 84.2734 56.9785 84.2363 56.752 84.2129C56.5293 84.1855 56.3164 84.1719 56.1133 84.1719C55.6562 84.1719 55.2891 84.2598 55.0117 84.4355C54.7383 84.6113 54.5332 84.8633 54.3965 85.1914V89H52.7676V82.6602H54.2852L54.3613 83.6973C54.6191 83.3379 54.9277 83.0566 55.2871 82.8535C55.6465 82.6465 56.0391 82.543 56.4648 82.543ZM58.8965 85.7715C58.8965 85.3105 58.9629 84.8848 59.0957 84.4941C59.2285 84.0996 59.4219 83.7578 59.6758 83.4688C59.9336 83.1797 60.2461 82.9531 60.6133 82.7891C60.9844 82.625 61.4082 82.543 61.8848 82.543C62.3613 82.543 62.7852 82.625 63.1562 82.7891C63.5273 82.9531 63.8398 83.1797 64.0938 83.4688C64.3516 83.7578 64.5469 84.0996 64.6797 84.4941C64.8125 84.8848 64.8789 85.3105 64.8789 85.7715V85.8945C64.8789 86.3594 64.8125 86.7891 64.6797 87.1836C64.5469 87.5742 64.3535 87.9141 64.0996 88.2031C63.8457 88.4922 63.5332 88.7188 63.1621 88.8828C62.791 89.043 62.3691 89.123 61.8965 89.123C61.4199 89.123 60.9941 89.043 60.6191 88.8828C60.248 88.7188 59.9336 88.4922 59.6758 88.2031C59.4219 87.9141 59.2285 87.5742 59.0957 87.1836C58.9629 86.7891 58.8965 86.3594 58.8965 85.8945V85.7715ZM60.5254 85.8945C60.5254 86.1602 60.5508 86.4102 60.6016 86.6445C60.6523 86.875 60.7324 87.0781 60.8418 87.2539C60.9512 87.4258 61.0918 87.5625 61.2637 87.6641C61.4395 87.7656 61.6504 87.8164 61.8965 87.8164C62.1348 87.8164 62.3398 87.7656 62.5117 87.6641C62.6836 87.5625 62.8223 87.4258 62.9277 87.2539C63.0371 87.0781 63.1172 86.875 63.168 86.6445C63.2188 86.4102 63.2441 86.1602 63.2441 85.8945V85.7715C63.2441 85.5137 63.2188 85.2695 63.168 85.0391C63.1172 84.8086 63.0371 84.6055 62.9277 84.4297C62.8223 84.2539 62.6836 84.1152 62.5117 84.0137C62.3398 83.9121 62.1309 83.8613 61.8848 83.8613C61.6426 83.8613 61.4355 83.9121 61.2637 84.0137C61.0918 84.1152 60.9512 84.2539 60.8418 84.4297C60.7324 84.6055 60.6523 84.8086 60.6016 85.0391C60.5508 85.2695 60.5254 85.5137 60.5254 85.7715V85.8945ZM69.1328 87.8164C69.293 87.8164 69.4453 87.793 69.5898 87.7461C69.7344 87.6992 69.8613 87.6328 69.9707 87.5469C70.0801 87.4609 70.1641 87.3574 70.2227 87.2363C70.2852 87.1152 70.3125 86.9805 70.3047 86.832H71.8398C71.8477 87.1602 71.7793 87.4648 71.6348 87.7461C71.4941 88.0273 71.3008 88.2695 71.0547 88.4727C70.8086 88.6758 70.5215 88.8359 70.1934 88.9531C69.8691 89.0664 69.5254 89.123 69.1621 89.123C68.6699 89.123 68.2383 89.041 67.8672 88.877C67.4961 88.709 67.1855 88.4805 66.9355 88.1914C66.6895 87.9023 66.502 87.5645 66.373 87.1777C66.248 86.7871 66.1855 86.3691 66.1855 85.9238V85.748C66.1855 85.3027 66.248 84.8867 66.373 84.5C66.498 84.1094 66.6855 83.7695 66.9355 83.4805C67.1855 83.1914 67.4941 82.9629 67.8613 82.7949C68.2324 82.627 68.6621 82.543 69.1504 82.543C69.541 82.543 69.9023 82.6016 70.2344 82.7188C70.5664 82.8359 70.8516 83.002 71.0898 83.2168C71.332 83.4277 71.5195 83.6855 71.6523 83.9902C71.7852 84.291 71.8477 84.6289 71.8398 85.0039H70.3047C70.3125 84.8477 70.2891 84.6992 70.2344 84.5586C70.1797 84.418 70.0996 84.2969 69.9941 84.1953C69.8887 84.0938 69.7617 84.0137 69.6133 83.9551C69.4648 83.8926 69.3027 83.8613 69.127 83.8613C68.8691 83.8613 68.6562 83.9141 68.4883 84.0195C68.3203 84.125 68.1855 84.2656 68.084 84.4414C67.9863 84.6172 67.916 84.8184 67.873 85.0449C67.834 85.2715 67.8145 85.5059 67.8145 85.748V85.9238C67.8145 86.1699 67.834 86.4082 67.873 86.6387C67.9121 86.8652 67.9805 87.0664 68.0781 87.2422C68.1797 87.4141 68.3145 87.5527 68.4824 87.6582C68.6543 87.7637 68.8711 87.8164 69.1328 87.8164ZM75.918 86.3809L75.1797 87.0664V89H73.5508V80H75.1797V85.1445L75.6719 84.582L77.4238 82.6602H79.3809L76.9902 85.3027L79.7148 89H77.7168L75.918 86.3809Z" fill="black"/>
<path d="M22.1847 110.552C20.2807 110.552 18.9127 111.792 18.0807 114.272C18.0647 114.32 18.0167 114.344 17.9367 114.344C17.8567 114.328 17.8167 114.296 17.8167 114.248C17.8807 113.608 17.9527 112.784 18.0327 111.776C18.1127 110.752 18.1527 109.984 18.1527 109.472C18.1527 109.392 18.1927 109.352 18.2727 109.352C18.3687 109.352 18.4167 109.392 18.4167 109.472C18.4167 109.824 18.8727 110 19.7847 110C21.1607 110.048 22.7687 110.072 24.6087 110.072C25.5527 110.072 26.5527 110.056 27.6087 110.024L29.2407 110C29.8487 110 30.2887 109.96 30.5607 109.88C30.8487 109.8 31.0327 109.64 31.1127 109.4C31.1287 109.336 31.1767 109.304 31.2567 109.304C31.3527 109.304 31.4007 109.336 31.4007 109.4C31.3527 109.88 31.2967 110.648 31.2327 111.704C31.1847 112.76 31.1607 113.608 31.1607 114.248C31.1607 114.296 31.1207 114.32 31.0407 114.32C30.9607 114.32 30.9127 114.296 30.8967 114.248C30.6567 113.016 30.2087 112.096 29.5527 111.488C28.8967 110.864 28.0887 110.552 27.1287 110.552C26.6647 110.552 26.3527 110.656 26.1927 110.864C26.0487 111.056 25.9767 111.432 25.9767 111.992V123.056C25.9767 123.552 26.0247 123.912 26.1207 124.136C26.2167 124.36 26.4007 124.512 26.6727 124.592C26.9447 124.672 27.3767 124.712 27.9687 124.712C28.0167 124.712 28.0407 124.76 28.0407 124.856C28.0407 124.952 28.0167 125 27.9687 125C27.3927 125 26.9367 124.992 26.6007 124.976L24.6087 124.952L22.6647 124.976C22.3287 124.992 21.8647 125 21.2727 125C21.2247 125 21.2007 124.952 21.2007 124.856C21.2007 124.76 21.2247 124.712 21.2727 124.712C21.8487 124.712 22.2727 124.672 22.5447 124.592C22.8327 124.512 23.0247 124.36 23.1207 124.136C23.2327 123.896 23.2887 123.536 23.2887 123.056V111.944C23.2887 111.4 23.2167 111.032 23.0727 110.84C22.9287 110.648 22.6327 110.552 22.1847 110.552ZM44.4807 125.288C42.9927 125.288 41.6647 124.944 40.4967 124.256C39.3447 123.552 38.4487 122.608 37.8087 121.424C37.1847 120.224 36.8727 118.92 36.8727 117.512C36.8727 115.864 37.2887 114.456 38.1207 113.288C38.9527 112.104 40.0167 111.216 41.3127 110.624C42.6247 110.032 43.9607 109.736 45.3207 109.736C46.8407 109.736 48.1767 110.096 49.3287 110.816C50.4807 111.52 51.3607 112.456 51.9687 113.624C52.5927 114.792 52.9047 116.032 52.9047 117.344C52.9047 118.8 52.5207 120.136 51.7527 121.352C50.9847 122.568 49.9527 123.528 48.6567 124.232C47.3767 124.936 45.9847 125.288 44.4807 125.288ZM45.2727 124.688C46.1687 124.688 46.9687 124.432 47.6727 123.92C48.3927 123.392 48.9527 122.632 49.3527 121.64C49.7527 120.632 49.9527 119.432 49.9527 118.04C49.9527 116.568 49.7287 115.256 49.2807 114.104C48.8327 112.936 48.1847 112.024 47.3367 111.368C46.4887 110.712 45.4967 110.384 44.3607 110.384C42.9047 110.384 41.7847 110.936 41.0007 112.04C40.2167 113.128 39.8247 114.656 39.8247 116.624C39.8247 118.176 40.0567 119.568 40.5207 120.8C41.0007 122.016 41.6487 122.968 42.4647 123.656C43.2967 124.344 44.2327 124.688 45.2727 124.688ZM71.6157 113.072C71.6157 112.208 71.4157 111.528 71.0157 111.032C70.6317 110.536 70.0877 110.288 69.3837 110.288C69.3517 110.288 69.3357 110.24 69.3357 110.144C69.3357 110.048 69.3517 110 69.3837 110L70.5357 110.024C71.1437 110.056 71.6317 110.072 71.9997 110.072C72.3037 110.072 72.7437 110.056 73.3197 110.024L74.4237 110C74.4557 110 74.4717 110.048 74.4717 110.144C74.4717 110.24 74.4557 110.288 74.4237 110.288C73.7997 110.288 73.3117 110.536 72.9597 111.032C72.6077 111.528 72.4317 112.208 72.4317 113.072V119.744C72.4317 120.864 72.1837 121.848 71.6877 122.696C71.1917 123.544 70.4877 124.2 69.5757 124.664C68.6797 125.112 67.6397 125.336 66.4557 125.336C65.2717 125.336 64.2237 125.112 63.3117 124.664C62.3997 124.216 61.6797 123.568 61.1517 122.72C60.6397 121.856 60.3837 120.848 60.3837 119.696V111.944C60.3837 111.464 60.3357 111.112 60.2397 110.888C60.1597 110.664 59.9997 110.512 59.7597 110.432C59.5357 110.336 59.1757 110.288 58.6797 110.288C58.6317 110.288 58.6077 110.24 58.6077 110.144C58.6077 110.048 58.6317 110 58.6797 110L59.9517 110.024C60.6877 110.056 61.2717 110.072 61.7037 110.072C62.1837 110.072 62.7917 110.056 63.5277 110.024L64.7517 110C64.7997 110 64.8237 110.048 64.8237 110.144C64.8237 110.24 64.7997 110.288 64.7517 110.288C64.2557 110.288 63.8877 110.336 63.6477 110.432C63.4237 110.528 63.2637 110.696 63.1677 110.936C63.0877 111.16 63.0477 111.512 63.0477 111.992V118.856C63.0477 120.76 63.4237 122.168 64.1757 123.08C64.9277 123.992 65.9917 124.448 67.3677 124.448C68.6957 124.448 69.7357 124.048 70.4877 123.248C71.2397 122.432 71.6157 121.272 71.6157 119.768V113.072ZM95.6187 124.712C95.6507 124.712 95.6667 124.76 95.6667 124.856C95.6667 124.952 95.6507 125 95.6187 125H91.3467C90.9947 125 90.3387 124.344 89.3787 123.032C88.4187 121.704 87.2587 119.856 85.8987 117.488C85.7707 117.504 85.5867 117.512 85.3467 117.512C84.7227 117.512 84.2827 117.504 84.0267 117.488V123.056C84.0267 123.552 84.0667 123.912 84.1467 124.136C84.2267 124.36 84.3787 124.512 84.6027 124.592C84.8427 124.672 85.2187 124.712 85.7307 124.712C85.7627 124.712 85.7787 124.76 85.7787 124.856C85.7787 124.952 85.7627 125 85.7307 125C85.2027 125 84.7867 124.992 84.4827 124.976L82.6587 124.952L80.9067 124.976C80.5867 124.992 80.1547 125 79.6107 125C79.5627 125 79.5387 124.952 79.5387 124.856C79.5387 124.76 79.5627 124.712 79.6107 124.712C80.1227 124.712 80.4907 124.672 80.7147 124.592C80.9547 124.512 81.1147 124.36 81.1947 124.136C81.2907 123.896 81.3387 123.536 81.3387 123.056V111.944C81.3387 111.464 81.2987 111.112 81.2187 110.888C81.1387 110.664 80.9787 110.512 80.7387 110.432C80.4987 110.336 80.1307 110.288 79.6347 110.288C79.6027 110.288 79.5867 110.24 79.5867 110.144C79.5867 110.048 79.6027 110 79.6347 110L80.9067 110.024C81.6427 110.056 82.2267 110.072 82.6587 110.072C83.1227 110.072 83.6347 110.048 84.1947 110C84.3707 109.984 84.5947 109.968 84.8667 109.952C85.1547 109.936 85.4907 109.928 85.8747 109.928C87.3467 109.928 88.4827 110.2 89.2827 110.744C90.0987 111.272 90.5067 112.016 90.5067 112.976C90.5067 113.712 90.2827 114.416 89.8347 115.088C89.3867 115.76 88.8027 116.304 88.0827 116.72C89.3627 118.736 90.4347 120.312 91.2987 121.448C92.1787 122.584 92.9547 123.416 93.6267 123.944C94.3147 124.456 94.9787 124.712 95.6187 124.712ZM84.0267 116.792C84.4107 116.856 84.8747 116.888 85.4187 116.888C85.9947 116.888 86.4507 116.8 86.7867 116.624C87.1227 116.448 87.3627 116.144 87.5067 115.712C87.6667 115.28 87.7467 114.672 87.7467 113.888C87.7467 112.576 87.5547 111.672 87.1707 111.176C86.7867 110.68 86.2347 110.432 85.5147 110.432C84.9707 110.432 84.5867 110.552 84.3627 110.792C84.1387 111.032 84.0267 111.432 84.0267 111.992V116.792ZM116.577 110C116.609 110 116.625 110.048 116.625 110.144C116.625 110.24 116.609 110.288 116.577 110.288C115.937 110.288 115.433 110.544 115.065 111.056C114.697 111.552 114.513 112.224 114.513 113.072V125.36C114.513 125.408 114.473 125.44 114.393 125.456C114.329 125.472 114.281 125.464 114.249 125.432L102.993 112.616V121.952C102.993 122.8 103.169 123.472 103.521 123.968C103.873 124.464 104.361 124.712 104.985 124.712C105.017 124.712 105.033 124.76 105.033 124.856C105.033 124.952 105.017 125 104.985 125C104.537 125 104.193 124.992 103.953 124.976L102.657 124.952L101.169 124.976C100.897 124.992 100.505 125 99.9925 125C99.9445 125 99.9205 124.952 99.9205 124.856C99.9205 124.76 99.9445 124.712 99.9925 124.712C100.697 124.712 101.249 124.464 101.649 123.968C102.065 123.472 102.273 122.8 102.273 121.952V111.8C101.745 111.224 101.289 110.832 100.905 110.624C100.537 110.4 100.153 110.288 99.7525 110.288C99.7205 110.288 99.7045 110.24 99.7045 110.144C99.7045 110.048 99.7205 110 99.7525 110L100.761 110.024C100.969 110.04 101.273 110.048 101.673 110.048L103.497 110.024C103.721 110.008 103.993 110 104.313 110C104.441 110 104.537 110.032 104.601 110.096C104.665 110.16 104.777 110.296 104.937 110.504C105.209 110.872 105.401 111.12 105.513 111.248L113.817 120.824V113.072C113.817 112.208 113.641 111.528 113.289 111.032C112.937 110.536 112.449 110.288 111.825 110.288C111.793 110.288 111.777 110.24 111.777 110.144C111.777 110.048 111.793 110 111.825 110L112.857 110.024C113.369 110.056 113.801 110.072 114.153 110.072C114.473 110.072 114.921 110.056 115.497 110.024L116.577 110ZM137.921 124.712C138.001 124.712 138.041 124.76 138.041 124.856C138.041 124.952 138.001 125 137.921 125C137.601 125 137.105 124.984 136.433 124.952C135.729 124.92 135.225 124.904 134.921 124.904C134.521 124.904 134.033 124.92 133.457 124.952C132.913 124.984 132.481 125 132.161 125C132.097 125 132.065 124.952 132.065 124.856C132.065 124.76 132.097 124.712 132.161 124.712C132.577 124.712 132.873 124.672 133.049 124.592C133.241 124.496 133.337 124.336 133.337 124.112C133.337 123.84 133.177 123.384 132.857 122.744L130.361 117.824H126.089L124.385 121.592C124.177 122.056 124.073 122.488 124.073 122.888C124.073 123.464 124.273 123.912 124.673 124.232C125.089 124.552 125.641 124.712 126.329 124.712C126.409 124.712 126.449 124.76 126.449 124.856C126.449 124.952 126.409 125 126.329 125C126.041 125 125.625 124.984 125.081 124.952C124.473 124.92 123.945 124.904 123.497 124.904C123.065 124.904 122.545 124.92 121.937 124.952C121.393 124.984 120.953 125 120.617 125C120.553 125 120.521 124.952 120.521 124.856C120.521 124.76 120.553 124.712 120.617 124.712C121.065 124.712 121.441 124.624 121.745 124.448C122.049 124.256 122.353 123.928 122.657 123.464C122.961 122.984 123.321 122.28 123.737 121.352L128.945 109.904C128.977 109.856 129.049 109.832 129.161 109.832C129.289 109.832 129.361 109.856 129.377 109.904L135.377 121.712C135.937 122.848 136.401 123.632 136.769 124.064C137.137 124.496 137.521 124.712 137.921 124.712ZM126.401 117.152H130.025L128.105 113.36L126.401 117.152ZM161.725 124.712C161.757 124.712 161.773 124.76 161.773 124.856C161.773 124.952 161.757 125 161.725 125C161.181 125 160.749 124.992 160.429 124.976L158.653 124.952L156.853 124.976C156.549 124.992 156.133 125 155.605 125C155.557 125 155.533 124.952 155.533 124.856C155.533 124.76 155.557 124.712 155.605 124.712C156.277 124.712 156.733 124.632 156.973 124.472C157.213 124.312 157.333 123.976 157.333 123.464L157.309 123.056L156.805 113.24L151.861 124.832C151.829 124.896 151.765 124.928 151.669 124.928C151.573 124.928 151.509 124.896 151.477 124.832L145.405 113.288L145.213 121.952C145.197 122.816 145.365 123.496 145.717 123.992C146.085 124.472 146.597 124.712 147.253 124.712C147.301 124.712 147.325 124.76 147.325 124.856C147.325 124.952 147.301 125 147.253 125C146.821 125 146.485 124.992 146.245 124.976L144.925 124.952L143.413 124.976C143.157 124.992 142.813 125 142.381 125C142.333 125 142.309 124.952 142.309 124.856C142.309 124.76 142.333 124.712 142.381 124.712C143.037 124.712 143.557 124.464 143.941 123.968C144.325 123.472 144.525 122.8 144.541 121.952L144.757 112.016L144.733 111.992C144.413 111.4 144.077 110.968 143.725 110.696C143.389 110.424 142.997 110.288 142.549 110.288C142.501 110.288 142.477 110.24 142.477 110.144C142.477 110.048 142.501 110 142.549 110L143.677 110.024C143.901 110.04 144.189 110.048 144.541 110.048L145.813 110.024C145.957 110.008 146.141 110 146.365 110C146.573 110 146.733 110.072 146.845 110.216C146.957 110.36 147.165 110.704 147.469 111.248L152.701 121.064L157.261 110.6C157.357 110.376 157.453 110.224 157.549 110.144C157.661 110.048 157.805 110 157.981 110C158.125 110 158.285 110.008 158.461 110.024C158.653 110.04 158.869 110.048 159.109 110.048L160.525 110.024C160.749 110.008 161.069 110 161.485 110C161.533 110 161.557 110.048 161.557 110.144C161.557 110.24 161.533 110.288 161.485 110.288C160.733 110.288 160.189 110.44 159.853 110.744C159.517 111.048 159.365 111.52 159.397 112.16L159.973 123.056C160.005 123.552 160.061 123.912 160.141 124.136C160.237 124.36 160.397 124.512 160.621 124.592C160.861 124.672 161.229 124.712 161.725 124.712ZM178.055 121.184C178.055 121.152 178.087 121.136 178.151 121.136C178.199 121.136 178.239 121.152 178.271 121.184C178.319 121.2 178.343 121.216 178.343 121.232C178.183 122.48 178.103 123.616 178.103 124.64C178.103 124.768 178.079 124.864 178.031 124.928C177.983 124.976 177.887 125 177.743 125H167.135C167.087 125 167.063 124.952 167.063 124.856C167.063 124.76 167.087 124.712 167.135 124.712C167.647 124.712 168.015 124.672 168.239 124.592C168.479 124.512 168.639 124.36 168.719 124.136C168.799 123.896 168.839 123.536 168.839 123.056V111.944C168.839 111.464 168.799 111.112 168.719 110.888C168.639 110.664 168.479 110.512 168.239 110.432C167.999 110.336 167.631 110.288 167.135 110.288C167.087 110.288 167.063 110.24 167.063 110.144C167.063 110.048 167.087 110 167.135 110H177.311C177.471 110 177.551 110.072 177.551 110.216L177.599 113.408C177.599 113.44 177.551 113.464 177.455 113.48C177.375 113.496 177.327 113.48 177.311 113.432C177.055 112.504 176.623 111.816 176.015 111.368C175.407 110.92 174.607 110.696 173.615 110.696H172.895C172.415 110.696 172.063 110.8 171.839 111.008C171.615 111.216 171.503 111.536 171.503 111.968V116.864H173.495C174.423 116.864 175.135 116.704 175.631 116.384C176.127 116.064 176.375 115.616 176.375 115.04C176.375 114.992 176.415 114.968 176.495 114.968C176.591 114.968 176.639 114.992 176.639 115.04L176.615 117.2L176.639 118.352C176.671 118.896 176.687 119.328 176.687 119.648C176.687 119.68 176.639 119.696 176.543 119.696C176.447 119.696 176.399 119.68 176.399 119.648C176.399 118.992 176.143 118.48 175.631 118.112C175.135 117.728 174.415 117.536 173.471 117.536H171.503V122.96C171.503 123.424 171.591 123.768 171.767 123.992C171.943 124.216 172.223 124.328 172.607 124.328H173.399C174.647 124.328 175.647 124.072 176.399 123.56C177.151 123.048 177.703 122.256 178.055 121.184ZM200.585 110C200.617 110 200.633 110.048 200.633 110.144C200.633 110.24 200.617 110.288 200.585 110.288C199.945 110.288 199.441 110.544 199.073 111.056C198.705 111.552 198.521 112.224 198.521 113.072V125.36C198.521 125.408 198.481 125.44 198.401 125.456C198.337 125.472 198.289 125.464 198.257 125.432L187.001 112.616V121.952C187.001 122.8 187.177 123.472 187.529 123.968C187.881 124.464 188.369 124.712 188.993 124.712C189.025 124.712 189.041 124.76 189.041 124.856C189.041 124.952 189.025 125 188.993 125C188.545 125 188.201 124.992 187.961 124.976L186.665 124.952L185.177 124.976C184.905 124.992 184.513 125 184.001 125C183.953 125 183.929 124.952 183.929 124.856C183.929 124.76 183.953 124.712 184.001 124.712C184.705 124.712 185.257 124.464 185.657 123.968C186.073 123.472 186.281 122.8 186.281 121.952V111.8C185.753 111.224 185.297 110.832 184.913 110.624C184.545 110.4 184.161 110.288 183.761 110.288C183.729 110.288 183.713 110.24 183.713 110.144C183.713 110.048 183.729 110 183.761 110L184.769 110.024C184.977 110.04 185.281 110.048 185.681 110.048L187.505 110.024C187.729 110.008 188.001 110 188.321 110C188.449 110 188.545 110.032 188.609 110.096C188.673 110.16 188.785 110.296 188.945 110.504C189.217 110.872 189.409 111.12 189.521 111.248L197.825 120.824V113.072C197.825 112.208 197.649 111.528 197.297 111.032C196.945 110.536 196.457 110.288 195.833 110.288C195.801 110.288 195.785 110.24 195.785 110.144C195.785 110.048 195.801 110 195.833 110L196.865 110.024C197.377 110.056 197.809 110.072 198.161 110.072C198.481 110.072 198.929 110.056 199.505 110.024L200.585 110ZM210.049 110.552C208.145 110.552 206.777 111.792 205.945 114.272C205.929 114.32 205.881 114.344 205.801 114.344C205.721 114.328 205.681 114.296 205.681 114.248C205.745 113.608 205.817 112.784 205.897 111.776C205.977 110.752 206.017 109.984 206.017 109.472C206.017 109.392 206.057 109.352 206.137 109.352C206.233 109.352 206.281 109.392 206.281 109.472C206.281 109.824 206.737 110 207.649 110C209.025 110.048 210.633 110.072 212.473 110.072C213.417 110.072 214.417 110.056 215.473 110.024L217.105 110C217.713 110 218.153 109.96 218.425 109.88C218.713 109.8 218.897 109.64 218.977 109.4C218.993 109.336 219.041 109.304 219.121 109.304C219.217 109.304 219.265 109.336 219.265 109.4C219.217 109.88 219.161 110.648 219.097 111.704C219.049 112.76 219.025 113.608 219.025 114.248C219.025 114.296 218.985 114.32 218.905 114.32C218.825 114.32 218.777 114.296 218.761 114.248C218.521 113.016 218.073 112.096 217.417 111.488C216.761 110.864 215.953 110.552 214.993 110.552C214.529 110.552 214.217 110.656 214.057 110.864C213.913 111.056 213.841 111.432 213.841 111.992V123.056C213.841 123.552 213.889 123.912 213.985 124.136C214.081 124.36 214.265 124.512 214.537 124.592C214.809 124.672 215.241 124.712 215.833 124.712C215.881 124.712 215.905 124.76 215.905 124.856C215.905 124.952 215.881 125 215.833 125C215.257 125 214.801 124.992 214.465 124.976L212.473 124.952L210.529 124.976C210.193 124.992 209.729 125 209.137 125C209.089 125 209.065 124.952 209.065 124.856C209.065 124.76 209.089 124.712 209.137 124.712C209.713 124.712 210.137 124.672 210.409 124.592C210.697 124.512 210.889 124.36 210.985 124.136C211.097 123.896 211.153 123.536 211.153 123.056V111.944C211.153 111.4 211.081 111.032 210.937 110.84C210.793 110.648 210.497 110.552 210.049 110.552Z" fill="black"/>
<path d="M17.2841 28.8045C17.3054 28.7934 17.3328 28.8196 17.3663 28.8833C17.3999 28.947 17.406 28.9845 17.3848 28.9957C16.9919 29.2025 16.7097 29.5681 16.5382 30.0923C16.3717 30.6004 16.3307 31.2051 16.4152 31.9065L17.6111 41.326C17.6229 41.3741 17.5757 41.426 17.4695 41.4819C17.3633 41.5379 17.2937 41.5474 17.2607 41.5105L12.9495 38.2675L13.6134 43.4308C13.6251 43.4789 13.5779 43.5308 13.4717 43.5867C13.3655 43.6426 13.2959 43.6522 13.263 43.6153L4.66487 37.1369C4.3267 36.881 4.06539 36.7066 3.88094 36.6139C3.70711 36.5155 3.54251 36.4734 3.38714 36.4874C3.2368 36.4851 3.06075 36.5371 2.85901 36.6434C2.82715 36.6601 2.79445 36.6367 2.76091 36.573C2.72737 36.5092 2.72652 36.469 2.75838 36.4522C2.91765 36.3684 3.03194 36.315 3.10124 36.2921C3.32478 36.2015 3.60645 36.0668 3.94623 35.8879C4.65766 35.5133 5.252 35.1868 5.72926 34.9084C5.8617 34.8251 6.0288 34.7304 6.23055 34.6242C6.2624 34.6074 6.2951 34.6309 6.32864 34.6946C6.36218 34.7583 6.36303 34.7985 6.33117 34.8153C6.06572 34.9551 5.88856 35.0822 5.79972 35.1968C5.72149 35.3058 5.71871 35.4293 5.79138 35.5674C5.88642 35.7479 6.19301 36.034 6.71116 36.4257L12.7814 41.0005L12.4012 37.8442L8.66264 35.0321C8.28087 34.7449 7.96283 34.5529 7.70852 34.4563C7.44862 34.349 7.22842 34.3429 7.04791 34.4379C7.01605 34.4547 6.98335 34.4312 6.94981 34.3675C6.91627 34.3038 6.91542 34.2636 6.94728 34.2468C7.05346 34.1909 7.18116 34.1372 7.33038 34.0858C7.48462 34.0182 7.69448 33.9144 7.95993 33.7747C8.56517 33.456 9.06395 33.1799 9.45626 32.9462C9.55685 32.8797 9.6921 32.8017 9.86199 32.7122C9.89384 32.6955 9.92654 32.7189 9.96008 32.7827C9.99363 32.8464 9.99447 32.8866 9.96262 32.9034C9.81396 32.9816 9.71365 33.0616 9.66168 33.1432C9.61474 33.2086 9.61643 33.2891 9.66675 33.3846C9.76178 33.5651 10.1092 33.8772 10.7089 34.3209L12.1896 35.4332L12.026 34.1564C11.9409 33.4282 11.8173 32.9101 11.6552 32.6022C11.4931 32.2942 11.2793 32.2102 11.0138 32.3499C10.982 32.3667 10.9493 32.3432 10.9157 32.2795C10.8822 32.2158 10.8813 32.1756 10.9132 32.1588C10.9981 32.1141 11.094 32.0772 11.2007 32.0481C11.3125 32.0028 11.5701 31.8739 11.9736 31.6615C12.1541 31.5665 12.3662 31.4413 12.6099 31.2858L13.1908 30.9596C13.212 30.9485 13.2394 30.9747 13.273 31.0384C13.3065 31.1022 13.3127 31.1396 13.2914 31.1508C12.58 31.5253 12.3205 32.4621 12.513 33.961L12.7539 35.8481L16.7867 38.8714L15.9483 32.2948C15.8968 31.8879 15.7984 31.5464 15.6531 31.2703C15.4798 30.9412 15.2579 30.7257 14.9873 30.6241C14.7274 30.5168 14.4594 30.5358 14.1834 30.6812C14.1515 30.698 14.1188 30.6745 14.0853 30.6108C14.0517 30.5471 14.0509 30.5068 14.0827 30.4901L14.8238 30.1202C15.2172 29.9402 15.5732 29.7664 15.8918 29.5986C16.1041 29.4868 16.3428 29.3476 16.6077 29.1811L17.2841 28.8045Z" fill="black"/>
<path d="M33.5626 34.2055C32.5316 34.6325 31.5126 34.7752 30.5059 34.6336C29.5056 34.4764 28.6138 34.0794 27.8306 33.4426C27.0538 32.7902 26.4634 31.9761 26.0594 31.0005C25.5865 29.8585 25.4707 28.7635 25.712 27.7154C25.9488 26.6562 26.4313 25.7356 27.1594 24.9535C27.8986 24.1667 28.7395 23.5783 29.6818 23.188C30.7351 22.7518 31.7642 22.6179 32.769 22.7862C33.7693 22.9434 34.6477 23.3395 35.4042 23.9744C36.1717 24.6046 36.7438 25.3743 37.1202 26.2835C37.5381 27.2924 37.6554 28.3283 37.4721 29.3913C37.2889 30.4543 36.8493 31.4157 36.1533 32.2754C35.4684 33.1305 34.6048 33.7739 33.5626 34.2055ZM33.9393 33.5624C34.5601 33.3053 35.041 32.8984 35.3819 32.3416C35.7293 31.7691 35.8993 31.0818 35.8918 30.2796C35.8797 29.4663 35.6739 28.5774 35.2744 27.6129C34.852 26.5929 34.3203 25.748 33.6793 25.0783C33.0337 24.3975 32.323 23.9515 31.5471 23.7403C30.7713 23.5291 29.9898 23.5865 29.2026 23.9125C28.1937 24.3303 27.576 25.0342 27.3496 26.0242C27.1185 27.0031 27.2854 28.1744 27.8501 29.538C28.2955 30.6135 28.8557 31.5114 29.5307 32.232C30.2123 32.9368 30.9345 33.4106 31.6974 33.6531C32.4713 33.8911 33.2186 33.8609 33.9393 33.5624Z" fill="black"/>
<path d="M56.9836 25.4244C57.0064 25.4171 57.0288 25.4478 57.0508 25.5163C57.0727 25.5849 57.0722 25.6229 57.0494 25.6302L53.9977 26.6064C53.7463 26.6868 53.1278 26.3681 52.1422 25.6503C51.1529 24.921 49.902 23.866 48.3894 22.4853C48.3016 22.5259 48.172 22.5737 48.0005 22.6286C47.5548 22.7711 47.2387 22.866 47.0521 22.9131L48.3245 26.8905C48.4379 27.2448 48.5487 27.4928 48.657 27.6346C48.7654 27.7763 48.9087 27.8501 49.087 27.8561C49.2767 27.8584 49.5544 27.801 49.9202 27.684C49.943 27.6767 49.9654 27.7074 49.9874 27.7759C50.0093 27.8445 50.0089 27.8825 49.986 27.8898C49.6088 28.0104 49.3098 28.0998 49.089 28.1578L47.7806 28.5575L46.5345 28.975C46.3096 29.0596 46.0028 29.164 45.6142 29.2883C45.58 29.2993 45.5518 29.2705 45.5299 29.2019C45.508 29.1333 45.5141 29.0935 45.5484 29.0826C45.9142 28.9656 46.1679 28.8529 46.3096 28.7446C46.4628 28.6326 46.5424 28.4874 46.5483 28.3091C46.562 28.1158 46.5141 27.8476 46.4044 27.5047L43.8651 19.567C43.7554 19.2241 43.6464 18.9818 43.538 18.8401C43.4297 18.6984 43.2807 18.6264 43.091 18.6241C42.8976 18.6103 42.6237 18.6601 42.2694 18.7735C42.2466 18.7808 42.2242 18.7502 42.2022 18.6816C42.1803 18.613 42.1807 18.5751 42.2036 18.5677L43.1177 18.2942C43.6508 18.1489 44.0716 18.0269 44.3802 17.9281C44.7117 17.8221 45.0719 17.688 45.461 17.5257C45.5831 17.4741 45.7394 17.4114 45.93 17.3378C46.1321 17.2606 46.3703 17.1781 46.6446 17.0904C47.6961 16.754 48.5698 16.6887 49.2656 16.8945C49.9691 17.0852 50.4306 17.5234 50.65 18.2092C50.8181 18.7349 50.819 19.289 50.6526 19.8714C50.4861 20.4538 50.1932 20.9759 49.774 21.4376C51.149 22.5852 52.2749 23.466 53.1517 24.08C54.0399 24.6904 54.7844 25.1074 55.3851 25.331C55.9936 25.5396 56.5264 25.5707 56.9836 25.4244ZM46.8931 22.4159C47.182 22.3738 47.5208 22.2907 47.9094 22.1664C48.3208 22.0347 48.6265 21.8677 48.8263 21.6652C49.0261 21.4626 49.128 21.1906 49.1322 20.8491C49.1477 20.504 49.066 20.0514 48.8868 19.4913C48.587 18.5541 48.2432 17.9522 47.8556 17.6857C47.4679 17.4191 47.017 17.3681 46.5026 17.5326C46.114 17.657 45.8671 17.8304 45.762 18.0531C45.6568 18.2757 45.6682 18.587 45.7962 18.9871L46.8931 22.4159Z" fill="black"/>
<path d="M65.3844 21.9076C65.4572 22.211 65.5338 22.4271 65.6141 22.5559C65.6915 22.6731 65.8001 22.7396 65.9396 22.7554C66.0908 22.7685 66.3181 22.7386 66.6215 22.6658L67.2166 22.523C68.1268 22.3045 68.857 21.8762 69.4073 21.2382C69.9547 20.5884 70.2399 19.8227 70.2627 18.9411C70.2571 18.9177 70.2777 18.9004 70.3243 18.8892C70.3477 18.8836 70.3738 18.8897 70.4028 18.9074C70.4406 18.9107 70.4609 18.9182 70.4637 18.9298C70.6359 20.1102 70.8145 21.0855 70.9993 21.8556C71.0218 21.949 71.0152 22.0246 70.9798 22.0825C70.9531 22.1259 70.8932 22.1588 70.7998 22.1812L62.5385 24.1642C62.5151 24.1698 62.4951 24.1376 62.4783 24.0676C62.4615 23.9976 62.4647 23.9598 62.4881 23.9542C62.8615 23.8645 63.1228 23.7709 63.2722 23.6734C63.4332 23.573 63.5233 23.4342 63.5424 23.2568C63.5704 23.065 63.5424 22.794 63.4584 22.444L61.5132 14.3401C61.4292 13.9901 61.3325 13.7418 61.2233 13.5952C61.1258 13.4459 60.9825 13.363 60.7934 13.3467C60.6016 13.3187 60.3248 13.3481 59.9631 13.4349C59.9398 13.4405 59.9197 13.4083 59.9029 13.3383C59.8861 13.2683 59.8894 13.2305 59.9127 13.2249L60.8095 13.0281C61.3519 12.9226 61.7981 12.8279 62.1482 12.7439C62.4982 12.6598 62.9388 12.5417 63.47 12.3896L64.3584 12.1578C64.3934 12.1494 64.4193 12.1802 64.4361 12.2502C64.4529 12.3202 64.4438 12.3594 64.4088 12.3678C64.0471 12.4546 63.7871 12.5541 63.6289 12.6661C63.4679 12.7665 63.3792 12.9111 63.3629 13.1002C63.3437 13.2775 63.3762 13.5413 63.4602 13.8913L65.3844 21.9076Z" fill="black"/>
<path d="M82.3191 20.0653C81.9401 20.1271 81.4872 20.1826 80.9603 20.232C80.7688 20.2511 80.53 20.2778 80.2439 20.3123C79.9695 20.3449 79.6606 20.3891 79.3171 20.4451L78.0054 20.6771C77.7704 20.7275 77.4516 20.7856 77.0489 20.8512C77.0252 20.855 77.0076 20.8214 76.996 20.7504C76.9845 20.6793 76.9905 20.6419 77.0142 20.638C77.3932 20.5762 77.6667 20.5013 77.8347 20.4131C78.0027 20.3249 78.1028 20.1931 78.135 20.0177C78.1771 19.8284 78.1692 19.5561 78.1113 19.2008L76.7709 10.9753C76.713 10.62 76.635 10.3652 76.5369 10.211C76.4507 10.0548 76.3139 9.96163 76.1266 9.93136C75.9492 9.88732 75.6769 9.89522 75.3098 9.95505C75.2743 9.96084 75.2507 9.9282 75.2391 9.85714C75.2275 9.78608 75.2395 9.74765 75.2751 9.74186L76.2195 9.60619C76.7682 9.54109 77.2024 9.48249 77.5222 9.43038C78.0078 9.35125 78.5023 9.25242 79.0058 9.1339C79.6179 9.00985 80.0305 8.93045 80.2436 8.89571C81.4399 8.70078 82.5385 8.76491 83.5395 9.08812C84.5524 9.4094 85.38 9.93715 86.0225 10.6714C86.6649 11.4056 87.0691 12.282 87.2351 13.3006C87.4223 14.4494 87.3218 15.5114 86.9336 16.4865C86.5553 17.4479 85.9557 18.2447 85.1347 18.877C84.3236 19.4955 83.3851 19.8916 82.3191 20.0653ZM82.0749 19.6857C82.8329 19.5621 83.4712 19.2636 83.9898 18.79C84.5064 18.3046 84.8629 17.6568 85.0592 16.8467C85.2673 16.0347 85.2854 15.1016 85.1136 14.0475C84.9496 13.0408 84.647 12.1539 84.2059 11.3869C83.7629 10.608 83.2185 10.028 82.5728 9.64688C81.9271 9.26577 81.2312 9.13601 80.485 9.25761C79.7507 9.37727 79.2589 9.53036 79.0097 9.71687C78.7604 9.90339 78.6734 10.2276 78.7487 10.6895L80.0515 18.6841C80.1287 19.1578 80.308 19.4751 80.5896 19.6359C80.8692 19.7849 81.3643 19.8015 82.0749 19.6857Z" fill="black"/>
<path d="M96.4972 8.62585C96.5349 9.0562 96.6761 9.42929 96.9206 9.74513C97.1771 10.0599 97.4778 10.3287 97.8225 10.5514C98.1673 10.7741 98.6304 11.0407 99.2117 11.3511C99.843 11.6812 100.351 11.9739 100.734 12.2294C101.118 12.4848 101.454 12.8107 101.742 13.2071C102.028 13.5915 102.195 14.0527 102.242 14.5906C102.297 15.2122 102.178 15.7828 101.887 16.3022C101.594 16.8098 101.161 17.2272 100.587 17.5546C100.024 17.869 99.3785 18.0581 98.6493 18.1221C98.1114 18.1693 97.5432 18.1469 96.9449 18.0548C96.3455 17.9508 95.9363 17.818 95.7174 17.6565C95.6534 17.614 95.6019 17.5763 95.5629 17.5436C95.5348 17.4979 95.5166 17.4272 95.5082 17.3316L95.2043 14.4853L95.2027 14.4673C95.1985 14.4195 95.2263 14.393 95.2861 14.3877C95.3448 14.3705 95.3822 14.3853 95.3984 14.4321C95.821 15.1298 96.1837 15.6943 96.4865 16.1255C96.8013 16.5556 97.1771 16.9262 97.614 17.2372C98.0628 17.5472 98.5502 17.6791 99.0762 17.6329C99.5543 17.591 99.9378 17.4309 100.227 17.1526C100.514 16.8623 100.631 16.4064 100.576 15.7848C100.53 15.2588 100.37 14.809 100.097 14.4355C99.8349 14.061 99.5246 13.7509 99.1658 13.5053C98.807 13.2597 98.3179 12.9714 97.6986 12.6402C97.0923 12.32 96.6162 12.0425 96.2704 11.8078C95.9365 11.5721 95.6398 11.2789 95.3801 10.9283C95.1205 10.5776 94.9686 10.1513 94.9246 9.64919C94.869 9.01563 95.0017 8.46794 95.3225 8.00613C95.6543 7.53132 96.0982 7.16714 96.6542 6.91358C97.2091 6.64807 97.8033 6.48753 98.4369 6.43195C98.8553 6.39525 99.2833 6.39986 99.721 6.44579C100.158 6.47976 100.512 6.539 100.785 6.62352C100.896 6.6619 100.973 6.7094 101.014 6.76602C101.054 6.81069 101.078 6.87487 101.085 6.95855L101.316 9.59442C101.319 9.63029 101.292 9.66279 101.234 9.69195C101.176 9.70914 101.139 9.70033 101.124 9.66552L100.95 9.33741C100.585 8.61052 100.177 8.00191 99.7242 7.51159C99.2835 7.02021 98.7046 6.80599 97.9874 6.86891C97.5092 6.91085 97.1268 7.08293 96.8401 7.38514C96.5653 7.6863 96.4511 8.09987 96.4972 8.62585Z" fill="black"/>
<path d="M135.82 11.3506C136.817 11.5426 137.588 11.935 138.135 12.5278C138.694 13.1214 138.944 13.8251 138.886 14.639C138.841 15.2614 138.621 15.8111 138.226 16.2879C137.831 16.7648 137.305 17.1301 136.649 17.3837C135.994 17.6253 135.278 17.7181 134.5 17.6622C134.165 17.6381 133.783 17.5926 133.355 17.5257C133.188 17.5017 132.979 17.4746 132.729 17.4446C132.49 17.4154 132.221 17.3901 131.922 17.3685L130.61 17.2922C130.37 17.287 130.046 17.2697 129.639 17.2405C129.604 17.2379 129.588 17.2007 129.593 17.1289C129.598 17.0571 129.619 17.0224 129.655 17.025C130.002 17.05 130.268 17.039 130.451 16.9921C130.636 16.9332 130.77 16.8225 130.854 16.6601C130.951 16.4866 131.012 16.2263 131.037 15.8792L131.635 7.56666C131.671 7.06396 131.611 6.72878 131.454 6.56113C131.299 6.38151 130.964 6.2732 130.449 6.23618C130.425 6.23446 130.416 6.19769 130.421 6.12588C130.426 6.05407 130.44 6.01902 130.464 6.02074L131.415 6.10713C131.963 6.17066 132.4 6.21405 132.723 6.23729C133.058 6.26139 133.406 6.2684 133.768 6.25832C133.888 6.25496 134.069 6.2559 134.309 6.26115C134.549 6.2664 134.759 6.27548 134.939 6.28839C136.028 6.36672 136.858 6.6249 137.428 7.06292C137.998 7.50094 138.256 8.09697 138.201 8.85103C138.16 9.42554 137.931 9.93242 137.514 10.3717C137.11 10.8118 136.545 11.1381 135.82 11.3506ZM134.641 6.664C134.294 6.63904 134.048 6.7056 133.905 6.8637C133.762 7.00983 133.675 7.30432 133.643 7.74718L133.397 11.1584L134.114 11.228C134.737 11.2727 135.232 11.0738 135.601 10.6311C135.97 10.1884 136.18 9.60198 136.233 8.87187C136.282 8.18963 136.169 7.6642 135.895 7.29557C135.622 6.91498 135.204 6.70446 134.641 6.664ZM134.227 17.1914C135.795 17.3042 136.637 16.5467 136.754 14.9189C136.821 13.9972 136.652 13.2512 136.248 12.6807C135.843 12.1103 135.193 11.7928 134.295 11.7282C133.948 11.7033 133.636 11.6928 133.359 11.697L133.047 16.0238C133.019 16.4188 133.077 16.7057 133.22 16.8844C133.365 17.0512 133.7 17.1535 134.227 17.1914Z" fill="black"/>
<path d="M148.989 17.6476C148.939 18.0163 148.932 18.2878 148.969 18.4624C149.006 18.6369 149.104 18.7652 149.262 18.8472C149.433 18.9308 149.708 18.9984 150.089 19.0499C150.124 19.0547 150.137 19.0928 150.128 19.1642C150.118 19.2355 150.095 19.2688 150.06 19.2639C149.667 19.2108 149.359 19.163 149.134 19.1205L147.781 18.9191L146.459 18.7581C146.219 18.7378 145.898 18.7003 145.493 18.6455C145.469 18.6423 145.462 18.605 145.472 18.5337C145.482 18.4623 145.498 18.4282 145.522 18.4315C145.903 18.483 146.186 18.4911 146.373 18.4558C146.559 18.4205 146.693 18.3237 146.775 18.1652C146.871 17.9965 146.943 17.7338 146.991 17.3771L148.11 9.11845C148.158 8.7617 148.158 8.49526 148.109 8.31912C148.072 8.14459 147.968 8.01551 147.798 7.9319C147.629 7.83639 147.355 7.76287 146.974 7.71133C146.95 7.70811 146.943 7.67083 146.953 7.59948C146.963 7.52813 146.979 7.49407 147.003 7.49729L147.964 7.64558C148.508 7.74344 148.946 7.81492 149.279 7.86002C149.648 7.90994 150.107 7.96006 150.657 8.01036L151.569 8.11572C151.605 8.12056 151.618 8.15865 151.608 8.22999C151.599 8.30134 151.576 8.3346 151.54 8.32977C151.172 8.27984 150.893 8.27848 150.705 8.32567C150.517 8.37286 150.382 8.48161 150.298 8.65193C150.216 8.81036 150.151 9.06794 150.102 9.42469L148.989 17.6476Z" fill="black"/>
<path d="M163.693 21.8919C162.4 21.6272 161.322 21.1492 160.459 20.4581C159.596 19.767 158.998 18.9465 158.666 17.9966C158.336 17.0349 158.278 16.0309 158.492 14.9846C158.723 13.856 159.217 12.9098 159.974 12.146C160.745 11.3729 161.685 10.8488 162.794 10.5738C163.918 10.2894 165.109 10.2759 166.367 10.5335C166.92 10.6466 167.468 10.8079 168.013 11.0175C168.561 11.2153 168.991 11.4196 169.303 11.6305C169.401 11.6874 169.456 11.7477 169.468 11.8113C169.493 11.8655 169.499 11.9585 169.484 12.0902L169.212 14.5883C169.204 14.6236 169.17 14.6411 169.109 14.6408C169.048 14.6405 169.01 14.6145 168.996 14.5626C168.77 13.5732 168.345 12.7511 167.719 12.0964C167.105 11.444 166.334 11.0228 165.406 10.8327C164.206 10.5872 163.204 10.8168 162.398 11.5216C161.604 12.2287 161.059 13.3053 160.763 14.7513C160.525 15.9152 160.512 16.9965 160.724 17.9953C160.938 18.9824 161.346 19.8008 161.948 20.4508C162.564 21.0913 163.313 21.5019 164.195 21.6824C164.677 21.781 165.058 21.8039 165.338 21.7511C165.619 21.6982 165.849 21.531 166.029 21.2494C166.209 20.9678 166.361 20.5272 166.483 19.9277C166.609 19.3163 166.66 18.8859 166.638 18.6363C166.618 18.375 166.498 18.1791 166.28 18.0487C166.074 17.9207 165.688 17.7989 165.124 17.6834C165.053 17.669 165.028 17.6147 165.047 17.5207C165.054 17.4854 165.066 17.4572 165.083 17.4361C165.113 17.4056 165.141 17.3928 165.164 17.3976C166.151 17.661 166.951 17.8552 167.562 17.9804C168.161 18.1031 168.788 18.213 169.442 18.3101C169.465 18.3149 169.479 18.3362 169.484 18.3739C169.503 18.4022 169.51 18.4281 169.505 18.4516C169.488 18.5339 169.45 18.569 169.391 18.557C169.182 18.5019 169.027 18.513 168.925 18.5902C168.826 18.6556 168.737 18.8212 168.658 19.0867C168.582 19.3406 168.474 19.8084 168.334 20.4903C168.226 21.0193 168.167 21.3991 168.156 21.6297C168.157 21.8627 168.152 22.0086 168.14 22.0673C168.126 22.1379 168.098 22.1813 168.058 22.1976C168.03 22.2163 167.972 22.229 167.885 22.2356C166.301 22.2544 164.904 22.1398 163.693 21.8919Z" fill="black"/>
<path d="M181.003 26.2421C179.736 25.8739 178.7 25.3106 177.895 24.5521C177.091 23.7936 176.561 22.9276 176.307 21.9539C176.056 20.9688 176.079 19.9634 176.377 18.9378C176.698 17.8315 177.267 16.9282 178.083 16.228C178.913 15.5195 179.893 15.073 181.021 14.8884C182.164 14.6956 183.352 14.7783 184.585 15.1365C185.127 15.2938 185.661 15.4989 186.187 15.7518C186.717 15.9931 187.129 16.2314 187.423 16.4668C187.516 16.5315 187.566 16.596 187.573 16.6603C187.594 16.7164 187.592 16.8096 187.566 16.9397L187.093 19.4076C187.083 19.4422 187.048 19.4569 186.987 19.4517C186.926 19.4465 186.89 19.4175 186.881 19.3647C186.735 18.3602 186.377 17.5064 185.807 16.8034C185.248 16.1037 184.513 15.6216 183.603 15.3572C182.427 15.0157 181.409 15.1637 180.55 15.8012C179.701 16.4419 179.071 17.471 178.659 18.8885C178.328 20.0293 178.228 21.1061 178.358 22.1187C178.492 23.1198 178.833 23.9686 179.381 24.6649C179.943 25.3531 180.656 25.8227 181.521 26.0738C181.993 26.211 182.371 26.2646 182.655 26.2345C182.938 26.2045 183.181 26.0564 183.384 25.7902C183.586 25.5241 183.772 25.0971 183.943 24.5094C184.117 23.9102 184.203 23.4853 184.201 23.2348C184.202 22.9727 184.099 22.7678 183.892 22.6202C183.697 22.4759 183.322 22.3235 182.769 22.1628C182.7 22.1427 182.679 22.0866 182.706 21.9944C182.716 21.9598 182.73 21.9327 182.748 21.913C182.781 21.8851 182.809 21.8745 182.832 21.8812C183.795 22.2234 184.576 22.4815 185.175 22.6555C185.763 22.8262 186.379 22.9864 187.022 23.1359C187.046 23.1426 187.058 23.1649 187.059 23.2028C187.076 23.2325 187.08 23.2589 187.074 23.282C187.05 23.3627 187.01 23.3946 186.952 23.3779C186.748 23.3061 186.592 23.3046 186.485 23.3734C186.381 23.4306 186.279 23.5884 186.179 23.8467C186.082 24.0936 185.937 24.5512 185.742 25.2195C185.592 25.7381 185.502 26.1119 185.473 26.3409C185.455 26.5732 185.438 26.7182 185.422 26.7758C185.402 26.845 185.371 26.886 185.33 26.899C185.3 26.9154 185.241 26.9234 185.154 26.923C183.574 26.8138 182.19 26.5869 181.003 26.2421Z" fill="black"/>
<path d="M200.464 29.6315C200.472 29.609 200.499 29.6062 200.544 29.6229C200.577 29.6355 200.601 29.6572 200.615 29.6881C200.645 29.7119 200.658 29.7294 200.653 29.7407C200.214 30.5759 199.86 31.3533 199.592 32.0729C199.559 32.1629 199.517 32.2241 199.466 32.2565C199.42 32.2776 199.346 32.2693 199.245 32.2316L191.79 29.4533C191.756 29.4407 191.752 29.4007 191.777 29.3332C191.802 29.2658 191.832 29.2383 191.865 29.2509C192.225 29.385 192.494 29.4533 192.673 29.4557C192.862 29.4623 193.014 29.3974 193.129 29.261C193.248 29.1132 193.371 28.8707 193.497 28.5334L196.407 20.7241C196.533 20.3867 196.597 20.1289 196.599 19.9505C196.602 19.7721 196.529 19.6234 196.381 19.5043C196.238 19.374 195.992 19.2439 195.643 19.114C195.609 19.1014 195.605 19.0614 195.63 18.9939C195.655 18.9264 195.685 18.899 195.718 18.9116L202.87 21.5767C202.982 21.6187 203.02 21.6902 202.982 21.7914L202.18 24.0473C202.171 24.0698 202.131 24.074 202.06 24.0601C201.999 24.0504 201.97 24.0266 201.971 23.9887C202.034 23.2695 201.911 22.6728 201.601 22.1987C201.291 21.7246 200.787 21.3577 200.09 21.0979L199.584 20.9093C199.247 20.7836 198.972 20.7645 198.76 20.852C198.548 20.9395 198.386 21.1351 198.273 21.4387L196.99 24.8795L198.39 25.4012C199.043 25.6443 199.585 25.7183 200.017 25.6233C200.45 25.5283 200.741 25.2784 200.892 24.8736C200.905 24.8399 200.939 24.8335 200.995 24.8545C201.063 24.8796 201.09 24.909 201.078 24.9428L200.495 26.4545L200.21 27.2704C200.09 27.6611 199.988 27.9689 199.905 28.1938C199.896 28.2163 199.858 28.2149 199.791 28.1898C199.723 28.1646 199.694 28.1408 199.702 28.1183C199.874 27.6573 199.828 27.2304 199.565 26.8377C199.317 26.4379 198.861 26.1144 198.198 25.8672L196.814 25.3517L195.394 29.1636C195.272 29.4897 195.244 29.7545 195.309 29.9581C195.374 30.1616 195.542 30.3136 195.811 30.4142L196.368 30.6216C197.245 30.9485 198.015 31.0305 198.678 30.8676C199.34 30.7048 199.936 30.2927 200.464 29.6315Z" fill="black"/>
<path d="M211.731 27.2425C211.553 27.6363 211.494 28.0307 211.552 28.4258C211.622 28.8259 211.752 29.2074 211.944 29.5704C212.136 29.9334 212.409 30.3925 212.764 30.9477C213.153 31.5446 213.452 32.0483 213.662 32.4589C213.871 32.8695 214.005 33.3181 214.061 33.8046C214.123 34.2801 214.043 34.764 213.821 35.2562C213.564 35.8249 213.181 36.2643 212.673 36.5745C212.169 36.8738 211.587 37.0257 210.926 37.0304C210.282 37.0291 209.626 36.8779 208.959 36.5767C208.467 36.3545 207.982 36.0568 207.506 35.6837C207.034 35.2995 206.742 34.9835 206.63 34.7355C206.595 34.6671 206.569 34.609 206.551 34.5614C206.549 34.5078 206.567 34.4372 206.607 34.3497L207.735 31.719L207.743 31.7026C207.762 31.6588 207.8 31.6493 207.854 31.674C207.914 31.6877 207.939 31.719 207.93 31.7676C207.957 32.5829 207.997 33.2527 208.05 33.7769C208.114 34.3061 208.261 34.8132 208.489 35.2983C208.729 35.7882 209.089 36.1419 209.571 36.3591C210.008 36.5566 210.421 36.6047 210.809 36.5034C211.202 36.3911 211.527 36.0506 211.784 35.4819C212.001 35.0007 212.081 34.5302 212.026 34.0705C211.981 33.6158 211.862 33.1935 211.669 32.8037C211.477 32.4139 211.191 31.9231 210.813 31.3311C210.441 30.7551 210.162 30.2801 209.975 29.9062C209.8 29.5372 209.685 29.1363 209.63 28.7034C209.575 28.2705 209.651 27.8244 209.859 27.3651C210.12 26.7854 210.504 26.3727 211.01 26.1271C211.532 25.8755 212.097 25.7752 212.706 25.8263C213.32 25.8664 213.917 26.0173 214.496 26.279C214.879 26.4518 215.25 26.6654 215.609 26.9197C215.973 27.163 216.254 27.3882 216.45 27.5953C216.528 27.6835 216.572 27.7623 216.58 27.8318C216.593 27.8904 216.582 27.9579 216.548 28.0345L215.459 30.4462C215.444 30.479 215.404 30.494 215.34 30.4912C215.28 30.4774 215.252 30.4517 215.256 30.4139L215.266 30.0429C215.303 29.2305 215.245 28.4997 215.09 27.8506C214.947 27.2064 214.547 26.7362 213.89 26.44C213.453 26.2425 213.035 26.2053 212.637 26.3285C212.25 26.4566 211.948 26.7613 211.731 27.2425Z" fill="black"/>
<path d="M227.177 33.173C225.921 32.4936 224.576 32.8235 223.142 34.1626C223.114 34.1886 223.074 34.1873 223.021 34.1587C222.974 34.1196 222.959 34.0843 222.976 34.0526C223.247 33.6532 223.589 33.1354 224.001 32.4989C224.419 31.852 224.72 31.3596 224.902 31.0219C224.931 30.9691 224.972 30.957 225.024 30.9855C225.088 31.0198 225.105 31.0633 225.076 31.1161C224.951 31.3483 225.189 31.6271 225.79 31.9525C226.681 32.4752 227.733 33.0648 228.947 33.7213C229.57 34.0582 230.235 34.4044 230.943 34.7601L232.028 35.3266C232.43 35.5436 232.734 35.6742 232.942 35.7185C233.161 35.7685 233.339 35.7286 233.477 35.5988C233.511 35.5623 233.554 35.5583 233.607 35.5869C233.67 35.6211 233.69 35.6593 233.667 35.7016C233.464 36.0011 233.154 36.4877 232.734 37.1615C232.326 37.841 232.008 38.3919 231.779 38.8141C231.762 38.8457 231.727 38.8473 231.674 38.8187C231.622 38.7902 231.598 38.7572 231.605 38.7199C231.886 37.8215 231.919 37.0547 231.703 36.4196C231.493 35.7739 231.072 35.2797 230.438 34.9372C230.132 34.7716 229.889 34.7289 229.709 34.809C229.546 34.8843 229.364 35.1066 229.164 35.476L225.217 42.7747C225.04 43.1019 224.943 43.3566 224.926 43.5386C224.91 43.7206 224.977 43.8865 225.128 44.0364C225.278 44.1862 225.549 44.3667 225.94 44.578C225.971 44.5951 225.97 44.6353 225.936 44.6986C225.902 44.762 225.869 44.7851 225.837 44.7679C225.457 44.5624 225.159 44.3944 224.943 44.264L223.638 43.5374L222.347 42.8595C222.119 42.7502 221.81 42.5899 221.42 42.3787C221.388 42.3615 221.389 42.3213 221.424 42.258C221.458 42.1946 221.491 42.1715 221.523 42.1887C221.902 42.3942 222.196 42.5191 222.404 42.5634C222.623 42.6134 222.804 42.5816 222.947 42.4681C223.107 42.3497 223.272 42.1322 223.443 41.8156L227.408 34.4852C227.602 34.1264 227.686 33.8579 227.66 33.6799C227.633 33.5018 227.472 33.3329 227.177 33.173Z" fill="black"/>
</svg>
